<?xml version="1.0" encoding="UTF-8" standalone="no"?>
<!DOCTYPE svg PUBLIC "-//W3C//DTD SVG 20010904//EN"
              "http://www.w3.org/TR/2001/REC-SVG-20010904/DTD/svg10.dtd">

<svg xmlns="http://www.w3.org/2000/svg"
     width="1.43333in" height="2.22222in"
     viewBox="0 0 129 200">
  <path id="Selection #2"
        fill="none" stroke="black" stroke-width="1"
        d="M 76.00,175.00
           C 76.00,175.00 108.00,175.00 108.00,175.00
             117.27,175.13 116.08,177.02 116.00,190.00
             115.99,191.78 116.17,194.82 115.01,196.26
             113.30,198.38 108.50,198.00 106.00,198.00
             106.00,198.00 41.00,198.00 41.00,198.00
             36.73,198.00 23.38,199.23 21.02,195.69
             19.79,193.84 20.00,190.19 20.00,188.00
             20.00,188.00 20.00,48.00 20.00,48.00
             20.00,48.00 20.00,14.00 20.00,14.00
             20.01,11.46 19.68,7.52 21.60,5.60
             23.90,3.29 32.68,3.94 36.00,4.00
             44.15,4.15 43.99,6.78 44.00,14.00
             44.00,14.00 44.00,175.00 44.00,175.00
             44.00,175.00 76.00,175.00 76.00,175.00 Z" />
</svg>
