<?xml version="1.0" encoding="UTF-8" standalone="no"?>
<!DOCTYPE svg PUBLIC "-//W3C//DTD SVG 20010904//EN"
              "http://www.w3.org/TR/2001/REC-SVG-20010904/DTD/svg10.dtd">

<svg xmlns="http://www.w3.org/2000/svg"
     width="1.43333in" height="2.22222in"
     viewBox="0 0 129 200">
  <path id="Selection #1"
        fill="none" stroke="black" stroke-width="1"
        d="M 54.00,173.04
           C 71.51,180.68 94.19,167.13 94.96,148.00
             95.53,133.96 86.26,126.16 77.00,117.00
             58.28,98.51 30.16,86.59 22.04,60.00
             20.44,54.78 19.62,49.45 20.29,44.00
             21.51,34.00 24.87,24.80 31.47,17.04
             49.87,-4.59 83.74,-1.29 103.00,17.04
             109.17,22.91 115.35,28.33 117.00,37.00
             117.00,37.00 98.00,48.00 98.00,48.00
             90.66,37.68 82.35,28.00 69.00,26.48
             53.17,24.68 40.28,38.13 45.76,54.00
             49.88,65.95 63.27,74.57 73.00,81.87
             93.38,97.16 119.68,116.97 120.00,145.00
             120.08,152.46 119.38,158.00 116.55,165.00
             105.45,192.48 74.35,204.30 47.00,194.92
             35.28,190.90 26.59,183.66 19.01,174.00
             14.28,167.96 10.77,162.55 9.00,155.00
             9.00,155.00 28.00,145.00 28.00,145.00
             34.40,154.61 43.12,168.29 54.00,173.04 Z" />
</svg>
