<?xml version="1.0" encoding="UTF-8" standalone="no"?>
<!DOCTYPE svg PUBLIC "-//W3C//DTD SVG 20010904//EN"
              "http://www.w3.org/TR/2001/REC-SVG-20010904/DTD/svg10.dtd">

<svg xmlns="http://www.w3.org/2000/svg"
     width="1.28334in" height="0.666668in"
     viewBox="0 0 385 200">
  <path id="Selección"
        fill="none" stroke="black" stroke-width="1"
        d="M 55.00,172.79
           C 58.78,174.28 63.00,174.04 67.00,174.00
             80.50,173.83 93.81,162.98 94.00,149.00
             94.04,145.98 94.16,141.87 93.39,139.00
             91.31,131.25 80.68,121.62 75.00,116.00
             53.72,94.98 21.72,83.94 19.18,49.00
             18.85,44.40 20.47,36.37 22.05,32.00
             34.81,-3.25 78.33,-8.39 104.00,17.00
             109.35,22.30 116.91,29.26 118.00,37.00
             118.00,37.00 98.00,49.00 98.00,49.00
             93.70,42.58 85.13,32.47 78.00,29.48
             65.14,24.07 45.62,28.31 45.02,45.00
             44.41,61.86 60.08,71.48 72.00,80.47
             92.73,96.11 120.34,116.35 120.99,145.00
             121.52,168.43 106.06,188.81 84.00,196.00
             78.74,197.71 74.58,198.93 69.00,199.00
             48.63,199.24 32.68,192.05 19.81,176.00
             15.00,170.00 9.26,162.69 8.00,155.00
             8.00,155.00 28.00,144.00 28.00,144.00
             34.49,153.93 43.53,168.27 55.00,172.79 Z
           M 279.00,26.00
           C 276.85,25.97 273.48,26.11 271.99,24.26
             270.83,22.82 271.01,19.78 271.00,18.00
             270.98,14.52 270.23,4.97 272.60,2.60
             274.52,0.68 278.46,1.01 281.00,1.00
             281.00,1.00 357.00,1.00 357.00,1.00
             357.00,1.00 374.00,1.00 374.00,1.00
             375.95,1.04 378.63,0.90 379.98,2.60
             381.23,4.19 381.00,8.01 381.00,10.00
             381.00,10.00 381.00,19.00 381.00,19.00
             380.95,21.35 381.15,24.19 378.69,25.40
             376.89,26.28 369.39,26.00 367.00,26.00
             367.00,26.00 339.00,26.00 339.00,26.00
             339.00,26.00 339.00,156.00 339.00,156.00
             339.00,156.00 339.00,183.00 339.00,183.00
             339.00,183.00 337.98,193.40 337.98,193.40
             337.98,193.40 330.00,195.00 330.00,195.00
             330.00,195.00 313.00,195.00 313.00,195.00
             313.00,195.00 313.00,26.00 313.00,26.00
             313.00,26.00 279.00,26.00 279.00,26.00 Z
           M 214.00,174.00
           C 214.00,174.00 246.00,174.00 246.00,174.00
             254.23,174.16 253.10,176.16 253.00,191.00
             252.99,192.82 253.15,195.92 251.98,197.40
             250.41,199.38 246.30,199.00 244.00,199.00
             244.00,199.00 176.00,199.00 176.00,199.00
             172.32,199.00 158.04,199.95 156.02,197.40
             154.77,195.81 155.00,191.99 155.00,190.00
             155.00,190.00 155.00,49.00 155.00,49.00
             155.00,49.00 155.00,16.00 155.00,16.00
             155.00,13.17 154.31,5.83 156.60,4.02
             158.66,2.39 170.82,2.95 174.00,3.00
             181.80,3.14 180.99,6.14 181.00,13.00
             181.00,13.00 181.00,174.00 181.00,174.00
             181.00,174.00 214.00,174.00 214.00,174.00 Z" />
</svg>
