<?xml version="1.0" encoding="UTF-8" standalone="no"?>
<!DOCTYPE svg PUBLIC "-//W3C//DTD SVG 20010904//EN"
              "http://www.w3.org/TR/2001/REC-SVG-20010904/DTD/svg10.dtd">

<svg xmlns="http://www.w3.org/2000/svg"
     width="1.43333in" height="2.22222in"
     viewBox="0 0 129 200">
  <path id="Selection #4"
        fill="none" stroke="black" stroke-width="1"
        d="M 19.00,25.00
           C 16.65,24.98 13.39,25.19 11.71,23.40
             9.10,20.90 9.35,6.31 11.71,3.74
             13.85,1.64 18.28,2.00 21.00,2.00
             21.00,2.00 95.00,2.00 95.00,2.00
             95.00,2.00 111.00,2.00 111.00,2.00
             112.95,2.04 115.63,1.90 116.98,3.60
             118.23,5.19 118.00,9.01 118.00,11.00
             118.00,11.00 118.00,18.00 118.00,18.00
             117.95,20.35 118.15,23.19 115.69,24.40
             113.89,25.28 106.39,25.00 104.00,25.00
             104.00,25.00 76.00,25.00 76.00,25.00
             76.00,25.00 76.00,154.00 76.00,154.00
             76.00,154.00 76.00,185.00 76.00,185.00
             75.98,187.27 76.25,190.40 74.40,192.07
             72.06,194.17 66.04,194.00 63.00,194.00
             63.00,194.00 52.00,194.00 52.00,194.00
             52.00,194.00 52.00,25.00 52.00,25.00
             52.00,25.00 19.00,25.00 19.00,25.00 Z" />
</svg>
